# Blender v2.72 (sub 0) OBJ File: 'skybox.blend'
# www.blender.org
o Cube
v 1.000000 0.139079 1.000000
v 1.000000 2.139079 1.000000
v -1.000000 2.139079 1.000000
v -1.000000 0.139079 1.000000
v 1.000000 0.139080 -1.000000
v 0.999999 2.139080 -1.000000
v -1.000000 2.139079 -1.000000
v -1.000000 0.139079 -1.000000
vt 0.500000 0.666659
vt 0.250043 0.666660
vt 0.250043 0.333384
vt 0.749957 0.333384
vt 0.999913 0.333384
vt 0.999913 0.666659
vt 0.749957 0.666659
vt 0.500000 0.999935
vt 0.250044 0.999935
vt 0.000087 0.666660
vt 0.000087 0.333384
vt 0.500000 0.333384
vt 0.250043 0.000108
vt 0.500000 0.000108
vn 0.577300 0.577300 0.577300
vn -0.577300 0.577300 0.577300
vn -0.577300 -0.577300 0.577300
vn 0.577300 -0.577300 -0.577300
vn -0.577300 -0.577300 -0.577300
vn -0.577300 0.577300 -0.577300
vn 0.577300 0.577300 -0.577300
vn 0.577300 -0.577300 0.577300
g Cube_Cube_Material
s 1
f 2/1/1 3/2/2 4/3/3
f 5/4/4 8/5/5 7/6/6
f 5/4/4 6/7/7 2/1/1
f 2/1/1 6/8/7 7/9/6
f 3/2/2 7/10/6 8/11/5
f 1/12/8 4/3/3 8/13/5
f 1/12/8 2/1/1 4/3/3
f 6/7/7 5/4/4 7/6/6
f 1/12/8 5/4/4 2/1/1
f 3/2/2 2/1/1 7/9/6
f 4/3/3 3/2/2 8/11/5
f 5/14/4 1/12/8 8/13/5
