# Blender v2.72 (sub 0) OBJ File: 'mate.blend'
# www.blender.org
o Cylinder
v -0.000000 -0.114723 -0.027755
v 0.010621 -0.114723 -0.025642
v 0.019626 -0.114723 -0.019626
v 0.025642 -0.114723 -0.010621
v 0.027755 -0.114723 0.000000
v 0.025642 -0.114723 0.010621
v 0.019626 -0.114723 0.019626
v 0.010621 -0.114723 0.025642
v 0.000000 -0.114723 0.027755
v -0.010621 -0.114723 0.025642
v -0.019626 -0.114723 0.019626
v -0.025642 -0.114723 0.010621
v -0.027755 -0.114723 -0.000000
v -0.025642 -0.114723 -0.010621
v -0.019626 -0.114723 -0.019626
v -0.010621 -0.114723 -0.025642
v 0.000000 0.008329 -0.029356
v 0.000000 0.102822 -0.012617
v 0.004828 0.102822 -0.011656
v 0.011234 0.008329 -0.027122
v 0.008921 0.102822 -0.008921
v 0.020758 0.008329 -0.020758
v 0.011656 0.102822 -0.004828
v 0.027122 0.008329 -0.011234
v 0.012617 0.102822 0.000000
v 0.029356 0.008329 0.000000
v 0.011656 0.102822 0.004828
v 0.027122 0.008329 0.011234
v 0.008921 0.102822 0.008921
v 0.020758 0.008329 0.020758
v 0.004828 0.102822 0.011656
v 0.011234 0.008329 0.027122
v 0.000000 0.102822 0.012617
v 0.000000 0.008329 0.029356
v -0.004828 0.102822 0.011656
v -0.011234 0.008329 0.027122
v -0.008921 0.102822 0.008921
v -0.020758 0.008329 0.020758
v -0.011656 0.102822 0.004828
v -0.027122 0.008329 0.011234
v -0.012617 0.102822 -0.000000
v -0.029356 0.008329 -0.000000
v -0.011656 0.102822 -0.004828
v -0.027122 0.008329 -0.011234
v -0.008921 0.102822 -0.008921
v -0.020758 0.008329 -0.020758
v -0.004828 0.102822 -0.011656
v -0.011234 0.008329 -0.027122
v 0.000000 0.102564 -0.010655
v 0.004078 0.102564 -0.009844
v 0.007534 0.102564 -0.007534
v 0.009844 0.102564 -0.004078
v 0.010655 0.102564 0.000000
v 0.009844 0.102564 0.004078
v 0.007534 0.102564 0.007534
v 0.004078 0.102564 0.009844
v 0.000000 0.102564 0.010655
v -0.004078 0.102564 0.009844
v -0.007534 0.102564 0.007534
v -0.009844 0.102564 0.004078
v -0.010655 0.102564 -0.000000
v -0.009844 0.102564 -0.004078
v -0.007534 0.102564 -0.007534
v -0.004078 0.102564 -0.009844
v 0.011411 -0.108759 -0.027549
v 0.021085 -0.108759 -0.021085
v 0.027549 -0.108759 -0.011411
v 0.029819 -0.108759 0.000000
v 0.027549 -0.108759 0.011411
v 0.021085 -0.108759 0.021085
v 0.011411 -0.108759 0.027549
v 0.000000 -0.108759 0.029819
v -0.011411 -0.108759 0.027549
v -0.021085 -0.108759 0.021085
v -0.027549 -0.108759 0.011411
v -0.029819 -0.108759 -0.000000
v -0.027549 -0.108759 -0.011411
v -0.021085 -0.108759 -0.021085
v -0.011411 -0.108759 -0.027549
v 0.000000 -0.108759 -0.029819
v 0.000000 -0.117664 -0.021331
v 0.008163 -0.117664 -0.019707
v 0.015083 -0.117664 -0.015083
v 0.019707 -0.117664 -0.008163
v 0.021331 -0.117664 0.000000
v 0.019707 -0.117664 0.008163
v 0.015083 -0.117664 0.015083
v 0.008163 -0.117664 0.019707
v 0.000000 -0.117664 0.021331
v -0.008163 -0.117664 0.019707
v -0.015083 -0.117664 0.015083
v -0.019707 -0.117664 0.008163
v -0.021331 -0.117664 -0.000000
v -0.019707 -0.117664 -0.008163
v -0.015083 -0.117664 -0.015083
v -0.008163 -0.117664 -0.019707
v -0.004107 0.117725 -0.009916
v -0.007589 0.117725 -0.007589
v -0.009916 0.117725 -0.004107
v -0.010733 0.117725 -0.000000
v -0.009916 0.117725 0.004107
v -0.007589 0.117725 0.007589
v -0.004107 0.117725 0.009916
v 0.000000 0.117725 0.010733
v 0.004107 0.117725 0.009916
v 0.007589 0.117725 0.007589
v 0.009916 0.117725 0.004107
v 0.010733 0.117725 0.000000
v 0.009916 0.117725 -0.004107
v 0.007589 0.117725 -0.007589
v 0.004107 0.117725 -0.009916
v 0.000000 0.117725 -0.010733
v 0.000000 0.113345 -0.012274
v 0.004697 0.113345 -0.011340
v 0.008679 0.113345 -0.008679
v 0.011340 0.113345 -0.004697
v 0.012274 0.113345 0.000000
v 0.011340 0.113345 0.004697
v 0.008679 0.113345 0.008679
v 0.004697 0.113345 0.011340
v 0.000000 0.113345 0.012274
v -0.004697 0.113345 0.011340
v -0.008679 0.113345 0.008679
v -0.011340 0.113345 0.004697
v -0.012274 0.113345 -0.000000
v -0.011340 0.113345 -0.004697
v -0.008679 0.113345 -0.008679
v -0.004697 0.113345 -0.011340
v -0.004457 0.107907 -0.010760
v -0.008235 0.107907 -0.008235
v -0.010760 0.107907 -0.004457
v -0.011646 0.107907 -0.000000
v -0.010760 0.107907 0.004457
v -0.008235 0.107907 0.008235
v -0.004457 0.107907 0.010760
v 0.000000 0.107907 0.011646
v 0.004457 0.107907 0.010760
v 0.008235 0.107907 0.008235
v 0.010760 0.107907 0.004457
v 0.011646 0.107907 0.000000
v 0.010760 0.107907 -0.004457
v 0.008235 0.107907 -0.008235
v 0.004457 0.107907 -0.010760
v 0.000000 0.107907 -0.011646
vt 0.704755 0.890246
vt 0.692188 0.871698
vt 0.718491 0.846567
vt 0.705913 0.698364
vt 0.737864 0.730499
vt 0.719507 0.743294
vt 0.755021 0.772283
vt 0.733243 0.777024
vt 0.754754 0.817335
vt 0.737115 0.858761
vt 0.664015 0.680836
vt 0.693808 0.717254
vt 0.618541 0.680600
vt 0.623259 0.702611
vt 0.589122 0.716178
vt 0.526407 0.771110
vt 0.544055 0.729454
vt 0.562834 0.741662
vt 0.617077 0.906931
vt 0.575182 0.889715
vt 0.587113 0.870844
vt 0.198844 0.927560
vt 0.141645 0.927560
vt 0.148264 0.890783
vt 0.177454 0.550287
vt 0.176977 0.265426
vt 0.232871 0.265468
vt 0.736953 0.938054
vt 0.785062 0.890496
vt 0.813582 0.909703
vt 0.234230 0.550069
vt 0.275650 0.265493
vt 0.811202 0.828151
vt 0.844932 0.834925
vt 0.776325 0.315257
vt 0.720431 0.315096
vt 0.720908 0.030235
vt 0.811344 0.760517
vt 0.845115 0.753796
vt 0.659932 0.315096
vt 0.659455 0.030235
vt 0.785453 0.697947
vt 0.604038 0.315257
vt 0.602679 0.030453
vt 0.814088 0.678757
vt 0.737485 0.649996
vt 0.311259 0.265493
vt 0.354038 0.265468
vt 0.352679 0.550180
vt 0.756610 0.621280
vt 0.674746 0.624000
vt 0.409932 0.265426
vt 0.409455 0.550287
vt 0.606783 0.623932
vt 0.600049 0.590068
vt 0.470431 0.265426
vt 0.470908 0.550287
vt 0.543939 0.649813
vt 0.526325 0.265468
vt 0.524782 0.621104
vt 0.495815 0.697729
vt 0.569104 0.265278
vt 0.571138 0.550314
vt 0.467145 0.678564
vt 0.469786 0.760356
vt 0.982871 0.315257
vt 0.926977 0.315096
vt 0.927454 0.030235
vt 0.469834 0.828076
vt 0.436112 0.834899
vt 0.866478 0.315096
vt 0.495906 0.890480
vt 0.866000 0.030235
vt 0.810584 0.315257
vt 0.543935 0.938049
vt 0.525010 0.966733
vt 0.017804 0.265493
vt 0.060584 0.265468
vt 0.059225 0.550069
vt 0.606534 0.963687
vt 0.599950 0.997429
vt 0.116478 0.265426
vt 0.674268 0.963699
vt 0.755955 0.966710
vt 0.680960 0.997429
vt 0.848465 0.328961
vt 0.880176 0.547994
vt 0.864095 0.553210
vt 0.135266 0.019613
vt 0.116562 0.258572
vt 0.062311 0.248058
vt 0.229536 0.248058
vt 0.175284 0.258572
vt 0.156580 0.019613
vt 0.721984 0.329892
vt 0.780136 0.339780
vt 0.723042 0.558204
vt 0.657983 0.558204
vt 0.600890 0.339780
vt 0.659041 0.329892
vt 0.429933 0.256886
vt 0.368489 0.251540
vt 0.406730 0.019497
vt 0.942923 0.328961
vt 0.914461 0.547994
vt 0.897863 0.546162
vt 0.495403 0.251540
vt 0.452796 0.019497
vt 0.474403 0.013971
vt 0.897192 0.323914
vt 0.020788 0.228630
vt 0.100504 0.008746
vt 0.191343 0.008746
vt 0.271059 0.228630
vt 0.679089 0.554615
vt 0.320426 0.236317
vt 0.389285 0.013971
vt 0.978694 0.343331
vt 0.927445 0.553210
vt 0.257747 0.913389
vt 0.200971 0.939379
vt 0.139518 0.939379
vt 0.082742 0.913389
vt 0.088800 0.903370
vt 0.661582 0.017428
vt 0.039288 0.865366
vt 0.015770 0.802622
vt 0.026465 0.800271
vt 0.015770 0.734707
vt 0.026465 0.737058
vt 0.039288 0.671963
vt 0.468781 0.563093
vt 0.088800 0.633959
vt 0.082742 0.623940
vt 0.139518 0.597950
vt 0.200971 0.597950
vt 0.198844 0.609769
vt 0.257747 0.623940
vt 0.868128 0.017428
vt 0.292135 0.678657
vt 0.301201 0.671963
vt 0.324718 0.734707
vt 0.324718 0.802622
vt 0.314024 0.800271
vt 0.116000 0.550287
vt 0.175327 0.563093
vt 0.301201 0.865367
vt 0.292135 0.858672
vt 0.232838 0.872191
vt 0.076566 0.837839
vt 0.107651 0.665138
vt 0.314024 0.737058
vt 0.280745 0.744374
vt 0.059744 0.792955
vt 0.251689 0.903370
vt 0.263922 0.837839
vt 0.192224 0.890783
vt 0.076566 0.699490
vt 0.251689 0.633959
vt 0.232838 0.665138
vt 0.107651 0.872191
vt 0.280745 0.792955
vt 0.059744 0.744374
vt 0.141645 0.609769
vt 0.148264 0.646546
vt 0.263922 0.699490
vt 0.048354 0.858672
vt 0.048354 0.678657
vt 0.192224 0.646546
vt 0.732881 0.813303
vt 0.660021 0.702961
vt 0.780528 0.822327
vt 0.758986 0.873318
vt 0.576408 0.697663
vt 0.560866 0.911791
vt 0.720385 0.676277
vt 0.759636 0.715657
vt 0.548370 0.775157
vt 0.547909 0.811519
vt 0.780760 0.766951
vt 0.668973 0.654854
vt 0.522038 0.714889
vt 0.662591 0.907124
vt 0.657920 0.885056
vt 0.667869 0.933037
vt 0.612211 0.932898
vt 0.521590 0.872737
vt 0.543255 0.857887
vt 0.561486 0.845137
vt 0.719416 0.912158
vt 0.500392 0.821579
vt 0.526135 0.816228
vt 0.500539 0.766124
vt 0.561615 0.675741
vt 0.613222 0.654666
vt 0.620982 0.884745
vt 0.277684 0.550196
vt 0.777684 0.030453
vt 0.309225 0.550191
vt 0.681450 0.590136
vt 0.527684 0.550118
vt 0.435992 0.753677
vt 0.984230 0.030279
vt 0.467427 0.909728
vt 0.809225 0.030279
vt 0.015770 0.550196
vt 0.804159 0.343331
vt 0.115575 0.015797
vt 0.176272 0.015797
vt 0.701935 0.554615
vt 0.429032 0.021437
vt 0.554933 0.236317
vt 0.718781 0.017428
vt 0.411582 0.563093
vt 0.925327 0.017428
vt 0.118128 0.563093
vn 0.000000 0.108500 -0.994100
vn 0.000000 0.782900 -0.622200
vn 0.238100 0.782900 -0.574800
vn 0.918400 0.108500 0.380400
vn 0.994100 0.108500 0.000000
vn 0.622200 0.782900 0.000000
vn 0.918400 0.108500 -0.380400
vn 0.574800 0.782900 -0.238100
vn 0.702900 0.108500 -0.702900
vn 0.380400 0.108500 -0.918400
vn 0.702900 0.108500 0.702900
vn 0.574800 0.782900 0.238100
vn 0.380400 0.108500 0.918400
vn 0.238100 0.782900 0.574800
vn 0.000000 0.782900 0.622200
vn -0.702900 0.108500 0.702900
vn -0.380400 0.108500 0.918400
vn -0.238100 0.782900 0.574800
vn -0.702900 0.108500 -0.702900
vn -0.918400 0.108500 -0.380400
vn -0.574800 0.782900 -0.238100
vn 0.291200 -0.648900 -0.703000
vn 0.538000 -0.648900 -0.538000
vn 0.168400 -0.971200 -0.168400
vn 0.000000 -0.160600 -0.987000
vn 0.000000 0.098600 -0.995100
vn 0.380800 0.098600 -0.919400
vn 0.000000 -0.546200 -0.837600
vn 0.320500 -0.546200 -0.773900
vn 0.297300 -0.629700 -0.717700
vn 0.377700 -0.160600 -0.911900
vn 0.703600 0.098600 -0.703600
vn 0.592300 -0.546200 -0.592300
vn 0.549300 -0.629700 -0.549300
vn 0.919400 0.098600 -0.380800
vn 0.911900 -0.160600 -0.377700
vn 0.773900 -0.546200 -0.320500
vn 0.717700 -0.629700 -0.297300
vn 0.995100 0.098600 0.000000
vn 0.987000 -0.160600 0.000000
vn 0.837600 -0.546200 0.000000
vn 0.919400 0.098600 0.380800
vn 0.911900 -0.160600 0.377700
vn 0.776800 -0.629700 0.000000
vn 0.773900 -0.546200 0.320500
vn 0.703600 0.098600 0.703600
vn 0.697900 -0.160600 0.697900
vn 0.717700 -0.629700 0.297300
vn 0.592300 -0.546200 0.592300
vn 0.380800 0.098600 0.919400
vn 0.377700 -0.160600 0.911900
vn 0.320500 -0.546200 0.773900
vn 0.297300 -0.629700 0.717700
vn 0.000000 0.098600 0.995100
vn 0.000000 -0.160600 0.987000
vn 0.000000 -0.546200 0.837600
vn -0.380800 0.098600 0.919400
vn 0.000000 -0.629700 0.776800
vn -0.320500 -0.546200 0.773900
vn -0.703600 0.098600 0.703600
vn -0.697900 -0.160600 0.697900
vn -0.297300 -0.629700 0.717700
vn -0.592300 -0.546200 0.592300
vn -0.919400 0.098600 0.380800
vn -0.911900 -0.160600 0.377700
vn -0.773900 -0.546200 0.320500
vn -0.717700 -0.629700 0.297300
vn -0.995100 0.098600 0.000000
vn -0.837600 -0.546200 0.000000
vn -0.987000 -0.160600 0.000000
vn -0.919400 0.098600 -0.380800
vn -0.773900 -0.546200 -0.320500
vn -0.717700 -0.629700 -0.297300
vn -0.703600 0.098600 -0.703600
vn -0.697900 -0.160600 -0.697900
vn -0.592300 -0.546200 -0.592300
vn -0.549300 -0.629700 -0.549300
vn -0.380800 0.098600 -0.919400
vn -0.320500 -0.546200 -0.773900
vn 0.000000 -0.629700 -0.776800
vn -0.297300 -0.629700 -0.717700
vn 0.549300 -0.629700 0.549300
vn 0.697900 -0.160600 -0.697900
vn 0.703000 -0.648900 -0.291200
vn 0.760900 -0.648900 0.000000
vn 0.703000 -0.648900 0.291200
vn 0.538000 -0.648900 0.538000
vn 0.000000 -0.648900 0.760900
vn -0.377700 -0.160600 0.911900
vn -0.538000 -0.648900 0.538000
vn -0.760900 -0.648900 0.000000
vn -0.911900 -0.160600 -0.377700
vn -0.538000 -0.648900 -0.538000
vn -0.377700 -0.160600 -0.911900
vn 0.000000 -0.648900 -0.760900
vn -0.291200 -0.648900 -0.703000
vn 0.000000 -0.971200 -0.238100
vn 0.238100 -0.971200 0.000000
vn 0.000000 -0.971200 0.238100
vn -0.703000 -0.648900 -0.291200
vn -0.220000 -0.971200 -0.091100
vn 0.220000 -0.971200 0.091100
vn -0.091100 -0.971200 -0.220000
vn 0.091100 -0.971200 -0.220000
vn 0.091100 -0.971200 0.220000
vn -0.703000 -0.648900 0.291200
vn -0.220000 -0.971200 0.091100
vn 0.220000 -0.971200 -0.091100
vn -0.168400 -0.971200 -0.168400
vn 0.168400 -0.971200 0.168400
vn -0.291200 -0.648900 0.703000
vn -0.091100 -0.971200 0.220000
vn -0.238100 -0.971200 0.000000
vn 0.291200 -0.648900 0.703000
vn -0.168400 -0.971200 0.168400
vn 0.439900 0.782900 -0.439900
vn 0.439900 0.782900 0.439900
vn 0.706600 0.037500 -0.706600
vn 0.382400 0.037500 -0.923200
vn 0.000000 0.108500 0.994100
vn -0.923200 0.037500 -0.382400
vn 0.923200 0.037500 0.382400
vn 0.999300 0.037500 0.000000
vn -0.439900 0.782900 0.439900
vn -0.574800 0.782900 0.238100
vn 0.923200 0.037500 -0.382400
vn 0.706600 0.037500 0.706600
vn -0.382400 0.037500 0.923200
vn -0.380400 0.108500 -0.918400
vn -0.238100 0.782900 -0.574800
vn -0.382400 0.037500 -0.923200
vn -0.706600 0.037500 -0.706600
vn -0.999300 0.037500 0.000000
vn -0.994100 0.108500 0.000000
vn -0.622200 0.782900 0.000000
vn 0.000000 0.037500 -0.999300
vn -0.923200 0.037500 0.382400
vn -0.918400 0.108500 0.380400
vn -0.706600 0.037500 0.706600
vn 0.000000 0.037500 0.999300
vn 0.382400 0.037500 0.923200
vn -0.439900 0.782900 -0.439900
vn -0.549300 -0.629700 0.549300
vn -0.776800 -0.629700 0.000000
s 1
f 113/1/1 112/2/2 111/3/3
f 118/4/4 117/5/5 108/6/6
f 116/7/7 109/8/8 108/6/6
f 115/9/9 114/10/10 111/3/3
f 119/11/11 118/4/4 107/12/12
f 120/13/13 105/14/14 104/15/15
f 123/16/16 122/17/17 103/18/18
f 103/18/18 104/15/15 108/6/6
f 127/19/19 126/20/20 99/21/21
f 2/22/22 3/23/23 83/24/24
f 80/25/25 17/26/26 20/27/27
f 18/28/28 19/29/29 50/30/30
f 65/31/31 20/27/27 22/32/32
f 19/29/29 21/33/33 51/34/34
f 22/35/32 24/36/35 67/37/36
f 21/33/33 23/38/37 52/39/38
f 24/36/35 26/40/39 68/41/40
f 52/39/38 23/38/37 25/42/41
f 26/40/39 28/43/42 69/44/43
f 53/45/44 25/42/41 27/46/45
f 28/47/42 30/48/46 70/49/47
f 54/50/48 27/46/45 29/51/49
f 30/48/46 32/52/50 71/53/51
f 29/51/49 31/54/52 56/55/53
f 32/52/50 34/56/54 72/57/55
f 56/55/53 31/54/52 33/58/56
f 72/57/55 34/56/54 36/59/57
f 57/60/58 33/58/56 35/61/59
f 36/59/57 38/62/60 74/63/61
f 58/64/62 35/61/59 37/65/63
f 38/66/60 40/67/64 75/68/65
f 37/65/63 39/69/66 60/70/67
f 75/68/65 40/67/64 42/71/68
f 60/70/67 39/69/66 41/72/69
f 76/73/70 42/71/68 44/74/71
f 41/72/69 43/75/72 62/76/73
f 44/77/71 46/78/74 78/79/75
f 43/75/72 45/80/76 63/81/77
f 48/82/78 17/26/26 80/25/25
f 47/83/79 18/28/28 49/84/80
f 78/79/75 46/78/74 48/82/78
f 45/80/76 47/83/79 64/85/81
f 28/86/42 54/87/48 55/88/82
f 57/89/58 34/90/54 32/91/50
f 38/92/60 36/93/57 58/94/62
f 42/95/68 40/96/64 60/97/67
f 63/98/77 46/99/74 44/100/71
f 17/101/26 48/102/78 64/103/81
f 24/104/35 52/105/38 53/106/44
f 20/107/27 50/108/30 51/109/34
f 26/110/39 53/106/44 54/87/48
f 32/91/50 30/111/46 55/112/82
f 34/90/54 57/89/58 58/94/62
f 60/113/67 40/114/64 38/92/60
f 62/115/73 44/100/71 42/95/68
f 48/102/78 46/116/74 63/117/77
f 24/104/35 22/118/32 51/119/34
f 50/108/30 20/107/27 17/101/26
f 80/120/25 65/121/31 2/22/22
f 65/121/31 66/122/83 3/23/23
f 66/122/83 67/123/36 4/124/84
f 67/37/36 68/41/40 5/125/85
f 68/126/40 69/127/43 6/128/86
f 69/127/43 70/129/47 7/130/87
f 7/130/87 70/129/47 71/131/51
f 71/53/51 72/57/55 9/132/88
f 9/133/88 72/134/55 73/135/89
f 73/135/89 74/136/61 11/137/90
f 11/137/90 74/136/61 75/138/65
f 75/68/65 76/73/70 13/139/91
f 13/140/91 76/141/70 77/142/92
f 77/142/92 78/143/75 15/144/93
f 79/145/94 80/25/25 1/146/95
f 78/143/75 79/147/94 16/148/96
f 81/149/97 85/150/98 89/151/99
f 13/140/91 14/152/100 94/153/101
f 6/128/86 86/154/102 85/150/98
f 1/155/95 81/149/97 96/156/103
f 2/22/22 82/157/104 81/149/97
f 9/133/88 89/151/99 88/158/105
f 11/137/90 12/159/106 92/160/107
f 4/124/84 84/161/108 83/24/24
f 15/144/93 95/162/109 94/153/101
f 7/130/87 87/163/110 86/154/102
f 10/164/111 90/165/112 89/151/99
f 12/159/106 13/140/91 93/166/113
f 4/124/84 5/167/85 85/150/98
f 15/144/93 16/148/96 96/156/103
f 8/168/114 88/158/105 87/163/110
f 11/137/90 91/169/115 90/165/112
f 115/9/9 110/170/116 109/8/8
f 119/11/11 106/171/117 105/14/14
f 142/172/118 143/173/119 114/10/10
f 122/17/17 121/174/120 104/15/15
f 131/175/121 126/20/20 127/19/19
f 142/172/118 115/9/9 116/7/7
f 139/176/122 140/177/123 117/5/5
f 123/16/16 102/178/124 101/179/125
f 141/180/126 116/7/7 117/5/5
f 138/181/127 139/176/122 118/4/4
f 135/182/128 122/17/17 123/16/16
f 128/183/129 97/184/130 112/2/2
f 129/185/131 130/186/132 127/19/19
f 132/187/133 125/188/134 126/20/20
f 129/185/131 128/183/129 113/1/1
f 125/188/134 100/189/135 99/21/21
f 143/173/119 144/190/136 113/1/1
f 133/191/137 124/192/138 125/188/134
f 134/193/139 123/16/16 124/192/138
f 124/192/138 101/179/125 100/189/135
f 138/181/127 119/11/11 120/13/13
f 136/194/140 137/195/141 120/13/13
f 136/194/140 121/174/120 122/17/17
f 128/183/129 127/19/19 98/196/142
f 23/38/37 141/180/126 140/177/123
f 18/28/28 47/83/79 129/185/131
f 45/80/76 130/186/132 129/185/131
f 25/42/41 140/177/123 139/176/122
f 27/46/45 139/176/122 138/181/127
f 29/51/49 138/181/127 137/195/141
f 31/54/52 137/195/141 136/194/140
f 33/58/56 136/194/140 135/182/128
f 37/65/63 35/61/59 135/182/128
f 39/69/66 37/65/63 134/193/139
f 39/69/66 133/191/137 132/187/133
f 18/28/28 144/190/136 143/173/119
f 41/72/69 132/187/133 131/175/121
f 21/33/33 19/29/29 143/173/119
f 21/33/33 142/172/118 141/180/126
f 43/75/72 131/175/121 130/186/132
f 114/10/10 113/1/1 111/3/3
f 107/12/12 118/4/4 108/6/6
f 117/5/5 116/7/7 108/6/6
f 110/170/116 115/9/9 111/3/3
f 106/171/117 119/11/11 107/12/12
f 121/174/120 120/13/13 104/15/15
f 102/178/124 123/16/16 103/18/18
f 102/178/124 98/196/142 101/179/125
f 98/196/142 99/21/21 100/189/135
f 112/2/2 97/184/130 98/196/142
f 112/2/2 109/8/8 111/3/3
f 108/6/6 104/15/15 105/14/14
f 106/171/117 107/12/12 108/6/6
f 106/171/117 108/6/6 105/14/14
f 98/196/142 100/189/135 101/179/125
f 109/8/8 110/170/116 111/3/3
f 98/196/142 109/8/8 112/2/2
f 98/196/142 108/6/6 109/8/8
f 82/157/104 2/22/22 83/24/24
f 98/196/142 127/19/19 99/21/21
f 98/196/142 103/18/18 108/6/6
f 98/196/142 102/178/124 103/18/18
f 65/31/31 80/25/25 20/27/27
f 49/84/80 18/28/28 50/30/30
f 66/197/83 65/31/31 22/32/32
f 50/30/30 19/29/29 51/34/34
f 66/198/83 22/35/32 67/37/36
f 51/34/34 21/33/33 52/39/38
f 67/37/36 24/36/35 68/41/40
f 53/45/44 52/39/38 25/42/41
f 68/41/40 26/40/39 69/44/43
f 54/50/48 53/45/44 27/46/45
f 69/199/43 28/47/42 70/49/47
f 55/200/82 54/50/48 29/51/49
f 70/49/47 30/48/46 71/53/51
f 55/200/82 29/51/49 56/55/53
f 71/53/51 32/52/50 72/57/55
f 57/60/58 56/55/53 33/58/56
f 73/201/89 72/57/55 36/59/57
f 58/64/62 57/60/58 35/61/59
f 73/201/89 36/59/57 74/63/61
f 59/202/143 58/64/62 37/65/63
f 74/203/61 38/66/60 75/68/65
f 59/202/143 37/65/63 60/70/67
f 76/73/70 75/68/65 42/71/68
f 61/204/144 60/70/67 41/72/69
f 77/205/92 76/73/70 44/74/71
f 61/204/144 41/72/69 62/76/73
f 77/206/92 44/77/71 78/79/75
f 62/76/73 43/75/72 63/81/77
f 79/145/94 48/82/78 80/25/25
f 64/85/81 47/83/79 49/84/80
f 79/145/94 78/79/75 48/82/78
f 63/81/77 45/80/76 64/85/81
f 30/207/46 28/86/42 55/88/82
f 56/208/53 57/89/58 32/91/50
f 59/209/143 38/92/60 58/94/62
f 61/210/144 42/95/68 60/97/67
f 62/115/73 63/98/77 44/100/71
f 49/211/80 17/101/26 64/103/81
f 26/110/39 24/104/35 53/106/44
f 22/212/32 20/107/27 51/109/34
f 28/86/42 26/110/39 54/87/48
f 56/208/53 32/91/50 55/112/82
f 36/93/57 34/90/54 58/94/62
f 59/209/143 60/113/67 38/92/60
f 61/210/144 62/115/73 42/95/68
f 64/103/81 48/102/78 63/117/77
f 52/105/38 24/104/35 51/119/34
f 49/211/80 50/108/30 17/101/26
f 1/155/95 80/120/25 2/22/22
f 2/22/22 65/121/31 3/23/23
f 3/23/23 66/122/83 4/124/84
f 4/213/84 67/37/36 5/125/85
f 5/167/85 68/126/40 6/128/86
f 6/128/86 69/127/43 7/130/87
f 8/168/114 7/130/87 71/131/51
f 8/214/114 71/53/51 9/132/88
f 10/164/111 9/133/88 73/135/89
f 10/164/111 73/135/89 11/137/90
f 12/159/106 11/137/90 75/138/65
f 12/215/106 75/68/65 13/139/91
f 14/152/100 13/140/91 77/142/92
f 14/152/100 77/142/92 15/144/93
f 16/216/96 79/145/94 1/146/95
f 15/144/93 78/143/75 16/148/96
f 81/149/97 93/166/113 96/156/103
f 93/166/113 94/153/101 95/162/109
f 91/169/115 92/160/107 93/166/113
f 89/151/99 90/165/112 91/169/115
f 87/163/110 88/158/105 89/151/99
f 85/150/98 86/154/102 87/163/110
f 83/24/24 84/161/108 85/150/98
f 81/149/97 82/157/104 83/24/24
f 5/167/85 6/128/86 85/150/98
f 89/151/99 91/169/115 93/166/113
f 85/150/98 87/163/110 89/151/99
f 81/149/97 83/24/24 85/150/98
f 89/151/99 93/166/113 81/149/97
f 93/166/113 13/140/91 94/153/101
f 93/166/113 95/162/109 96/156/103
f 16/148/96 1/155/95 96/156/103
f 1/155/95 2/22/22 81/149/97
f 8/168/114 9/133/88 88/158/105
f 91/169/115 11/137/90 92/160/107
f 3/23/23 4/124/84 83/24/24
f 14/152/100 15/144/93 94/153/101
f 6/128/86 7/130/87 86/154/102
f 9/133/88 10/164/111 89/151/99
f 92/160/107 12/159/106 93/166/113
f 84/161/108 4/124/84 85/150/98
f 95/162/109 15/144/93 96/156/103
f 7/130/87 8/168/114 87/163/110
f 10/164/111 11/137/90 90/165/112
f 116/7/7 115/9/9 109/8/8
f 120/13/13 119/11/11 105/14/14
f 115/9/9 142/172/118 114/10/10
f 103/18/18 122/17/17 104/15/15
f 130/186/132 131/175/121 127/19/19
f 141/180/126 142/172/118 116/7/7
f 118/4/4 139/176/122 117/5/5
f 124/192/138 123/16/16 101/179/125
f 140/177/123 141/180/126 117/5/5
f 119/11/11 138/181/127 118/4/4
f 134/193/139 135/182/128 123/16/16
f 113/1/1 128/183/129 112/2/2
f 128/183/129 129/185/131 127/19/19
f 131/175/121 132/187/133 126/20/20
f 144/190/136 129/185/131 113/1/1
f 126/20/20 125/188/134 99/21/21
f 114/10/10 143/173/119 113/1/1
f 132/187/133 133/191/137 125/188/134
f 133/191/137 134/193/139 124/192/138
f 125/188/134 124/192/138 100/189/135
f 137/195/141 138/181/127 120/13/13
f 121/174/120 136/194/140 120/13/13
f 135/182/128 136/194/140 122/17/17
f 97/184/130 128/183/129 98/196/142
f 25/42/41 23/38/37 140/177/123
f 144/190/136 18/28/28 129/185/131
f 47/83/79 45/80/76 129/185/131
f 27/46/45 25/42/41 139/176/122
f 29/51/49 27/46/45 138/181/127
f 31/54/52 29/51/49 137/195/141
f 33/58/56 31/54/52 136/194/140
f 35/61/59 33/58/56 135/182/128
f 134/193/139 37/65/63 135/182/128
f 133/191/137 39/69/66 134/193/139
f 41/72/69 39/69/66 132/187/133
f 19/29/29 18/28/28 143/173/119
f 43/75/72 41/72/69 131/175/121
f 142/172/118 21/33/33 143/173/119
f 23/38/37 21/33/33 141/180/126
f 45/80/76 43/75/72 130/186/132
