# Blender v2.72 (sub 0) OBJ File: 'new_wall.blend'
# www.blender.org
o Plane.004_Plane.003
v -1.000000 0.000000 1.000000
v 1.000000 0.000000 1.000000
v -1.000000 0.000000 -1.000000
v 1.000000 0.000000 -1.000000
v 1.000000 4.000000 -1.000000
v -1.000000 4.000000 -1.000000
v 1.000000 4.000000 1.000000
v -1.000000 4.000000 1.000000
v -1.000000 0.000000 -1.000000
v -1.000000 0.000000 1.000000
v -1.000000 2.666667 -1.000000
v -1.000000 2.666667 1.000000
v -1.000000 4.000000 -1.000000
v -1.000000 4.000000 1.000000
v 1.000000 -0.000000 -0.999999
v -1.000000 0.000000 -1.000001
v 1.000000 2.666667 -0.999999
v -1.000000 2.666667 -1.000001
v 1.000000 4.000000 -0.999999
v -1.000000 4.000000 -1.000001
v -1.000000 -0.000000 0.999999
v 1.000000 0.000000 1.000001
v -1.000000 2.666667 0.999999
v 1.000000 2.666667 1.000001
v -1.000000 4.000000 0.999999
v 1.000000 4.000000 1.000001
v 1.000000 0.000000 1.000000
v 1.000000 0.000000 -1.000000
v 1.000000 2.666667 1.000000
v 1.000000 2.666667 -1.000000
v 1.000000 4.000000 1.000000
v 1.000000 4.000000 -1.000000
vt 0.000100 0.571648
vt 0.000100 0.999900
vt 0.499900 0.999900
vt 0.500050 0.999900
vt 0.500050 0.571648
vt 0.999950 0.571648
vt 0.500100 0.000050
vt 0.999900 0.000050
vt 0.999900 0.567838
vt 0.999929 0.000034
vt 0.999929 0.283944
vt 0.500071 0.283944
vt 0.000100 0.000050
vt 0.499900 0.000050
vt 0.499900 0.567838
vt 0.000071 0.000034
vt 0.499929 0.000034
vt 0.499929 0.283944
vt 0.500100 0.567838
vt 0.499900 0.571648
vt 0.999950 0.999900
vt 0.500071 0.000034
vt 0.000100 0.567838
vt 0.000071 0.283944
vn 0.000000 1.000000 0.000000
vn -1.000000 0.000000 -0.000000
vn 0.000000 0.000000 -1.000000
vn -0.000000 0.000000 1.000000
vn 1.000000 0.000000 0.000000
s off
f 2/1/1 4/2/1 3/3/1
f 6/4/1 8/5/1 7/6/1
s 3
f 9/7/2 10/8/2 12/9/2
f 12/10/2 14/11/2 13/12/2
s 4
f 15/13/3 16/14/3 18/15/3
f 17/16/3 18/17/3 20/18/3
s 5
f 21/13/4 22/14/4 24/15/4
f 23/16/4 24/17/4 26/18/4
s 6
f 28/8/5 30/9/5 29/19/5
f 30/10/5 32/11/5 31/12/5
s off
f 1/20/1 2/1/1 3/3/1
f 5/21/1 6/4/1 7/6/1
s 3
f 11/19/2 9/7/2 12/9/2
f 11/22/2 12/10/2 13/12/2
s 4
f 17/23/3 15/13/3 18/15/3
f 19/24/3 17/16/3 20/18/3
s 5
f 23/23/4 21/13/4 24/15/4
f 25/24/4 23/16/4 26/18/4
s 6
f 27/7/5 28/8/5 29/19/5
f 29/22/5 30/10/5 31/12/5
