# Blender v2.72 (sub 0) OBJ File: 'new_wall.blend'
# www.blender.org
o Plane.004_Plane.003
v -1.000000 0.000000 1.000000
v 1.000000 0.000000 1.000000
v -1.000000 0.000000 -1.000000
v 1.000000 0.000000 -1.000000
v 1.000000 4.000000 -1.000000
v -1.000000 4.000000 -1.000000
v 1.000000 4.000000 1.000000
v -1.000000 4.000000 1.000000
v -1.000000 0.000000 -1.000000
v -1.000000 0.000000 1.000000
v -1.000000 2.666667 -1.000000
v -1.000000 2.666667 1.000000
v -1.000000 4.000000 -1.000000
v -1.000000 4.000000 1.000000
v 1.000000 -0.000000 -0.999999
v -1.000000 0.000000 -1.000001
v 1.000000 2.666667 -0.999999
v -1.000000 2.666667 -1.000001
v 1.000000 4.000000 -0.999999
v -1.000000 4.000000 -1.000001
v -1.000000 -0.000000 0.999999
v 1.000000 0.000000 1.000001
v -1.000000 2.666667 0.999999
v 1.000000 2.666667 1.000001
v -1.000000 4.000000 0.999999
v 1.000000 4.000000 1.000001
v 1.000000 0.000000 1.000000
v 1.000000 0.000000 -1.000000
v 1.000000 2.666667 1.000000
v 1.000000 2.666667 -1.000000
v 1.000000 4.000000 1.000000
v 1.000000 4.000000 -1.000000
v -1.000000 1.333333 -1.000000
v -1.000000 1.333333 1.000000
v 1.000000 1.333333 1.000000
v 1.000000 1.333333 -1.000000
v 1.000000 1.333333 -0.999999
v -1.000000 1.333334 -1.000001
v -1.000000 1.333333 0.999999
v 1.000000 1.333334 1.000001
vt 1.000000 0.000000
vt 1.000000 0.374954
vt 0.000000 0.374954
vt 0.000000 1.000000
vt 0.000000 0.625046
vt 1.000000 0.625046
vt 0.000000 0.000000
vt 1.000000 1.000000
vn 0.000000 1.000000 0.000000
vn -1.000000 0.000000 -0.000000
vn 0.000000 0.000000 -1.000000
vn -0.000000 0.000000 1.000000
vn 1.000000 0.000000 0.000000
s off
f 2/1/1 4/2/1 3/3/1
f 6/4/1 8/5/1 7/6/1
s 3
f 34/2/2 12/6/2 11/5/2
f 12/2/2 14/6/2 13/5/2
s 4
f 38/2/3 18/6/3 17/5/3
f 17/3/3 18/2/3 20/6/3
s 5
f 40/2/4 24/6/4 23/5/4
f 23/3/4 24/2/4 26/6/4
s 6
f 36/2/5 30/6/5 29/5/5
f 30/2/5 32/6/5 31/5/5
s 3
f 9/3/2 10/2/2 34/6/2
s 6
f 28/2/5 36/6/5 35/5/5
s 4
f 16/2/3 38/6/3 37/5/3
s 5
f 22/2/4 40/6/4 39/5/4
s off
f 1/7/1 2/1/1 3/3/1
f 5/8/1 6/4/1 7/6/1
s 3
f 33/3/2 34/2/2 11/5/2
f 11/3/2 12/2/2 13/5/2
s 4
f 37/3/3 38/2/3 17/5/3
f 19/5/3 17/3/3 20/6/3
s 5
f 39/3/4 40/2/4 23/5/4
f 25/5/4 23/3/4 26/6/4
s 6
f 35/3/5 36/2/5 29/5/5
f 29/3/5 30/2/5 31/5/5
s 3
f 33/5/2 9/3/2 34/6/2
s 6
f 27/3/5 28/2/5 35/5/5
s 4
f 15/3/3 16/2/3 37/5/3
s 5
f 21/3/4 22/2/4 39/5/4
