# Blender v2.72 (sub 0) OBJ File: 'wall.blend'
# www.blender.org
o Cube
v 1.000000 0.022563 -1.000000
v 1.000000 0.022563 1.000000
v -1.000000 0.022563 1.000000
v -1.000000 0.022563 -1.000000
v 1.000000 4.022563 -0.999999
v 0.999999 4.022563 1.000001
v -1.000000 4.022563 1.000000
v -1.000000 4.022563 -1.000000
v 1.000000 2.022563 -1.000000
v -1.000000 2.022563 1.000000
v 1.000000 2.022563 1.000000
v -1.000000 2.022563 -1.000000
v 1.000000 1.022563 -1.000000
v -1.000000 1.022563 1.000000
v 1.000000 1.022563 1.000000
v -1.000000 1.022563 -1.000000
v 1.000000 3.022563 -1.000000
v -1.000000 3.022563 1.000000
v 1.000000 3.022563 1.000000
v -1.000000 3.022563 -1.000000
v 0.000000 0.022563 -1.048997
v 0.000000 0.022563 1.045805
v 0.000000 4.022563 -1.000000
v -0.000001 4.022563 1.023184
v -0.000000 2.022563 1.181431
v 0.000000 2.022563 -1.105939
v -0.000000 1.022563 1.227465
v 0.000000 1.022563 -1.144433
v -0.000000 3.022563 1.118988
v 0.000000 3.022563 -0.938700
v 1.192801 0.022563 0.000000
v -1.115874 0.022563 -0.000000
v 1.103073 4.022563 0.000001
v -1.088062 4.022563 -0.000000
v 0.840428 2.022563 0.000000
v -0.901244 2.022563 -0.000000
v 1.000000 1.022563 0.000000
v -1.000000 1.022563 -0.000000
v 1.000000 3.022563 0.000000
v -1.112106 3.022563 -0.000000
v -0.000000 4.022563 0.000000
v 0.000000 0.022563 -0.000000
vt 1.000000 0.000000
vt 1.000000 1.000000
vt 0.000000 1.000000
vt 0.000000 0.000000
vn -0.717500 0.696500 0.000000
vn -0.560500 0.594400 0.576600
vn 0.000000 0.735100 0.677900
vn 0.000000 -0.033600 0.999400
vn -0.779300 0.034200 0.625700
vn -0.570500 -0.602600 0.558000
vn 0.746500 0.665300 0.000000
vn 0.560300 0.593100 0.578100
vn 0.756100 -0.033500 0.653600
vn 0.777400 -0.629000 0.000000
vn 0.546800 -0.606900 0.576700
vn 0.000000 -0.758600 0.651500
vn 0.000000 -0.014200 -0.999900
vn 0.750400 0.057800 -0.658400
vn 0.538800 -0.599600 -0.591800
vn -0.998900 -0.045900 0.000000
vn -0.714900 0.009700 0.699100
vn -0.784700 -0.027400 0.619300
vn 0.000000 0.038700 0.999200
vn 1.000000 0.000000 0.000000
vn 0.819100 0.007800 0.573600
vn 0.776400 0.055900 0.627700
vn 0.704500 -0.017100 -0.709500
vn 0.796800 0.006900 -0.604100
vn 0.000000 0.060700 -0.998100
vn -0.996900 -0.078400 0.000000
vn 0.984800 0.173500 0.000000
vn -0.751200 -0.660100 0.000000
vn 0.991500 -0.130100 0.000000
vn 0.000000 0.055100 0.998500
vn 0.537700 0.577100 -0.614600
vn 0.000000 0.067200 -0.997700
vn 0.000000 1.000000 0.000000
vn 0.000000 -1.000000 0.000000
vn 0.000000 -0.729600 -0.683800
vn -0.562900 -0.595200 -0.573400
vn -0.659500 0.028200 -0.751100
vn -0.760600 -0.029500 -0.648500
vn -0.537900 0.578600 -0.613000
vn 0.000000 0.685100 -0.728400
vn -0.753500 0.035300 -0.656500
vn -0.994300 0.106700 0.000000
g Cube_Cube_Material
s 1
f 34/1/1 7/2/2 24/3/3
f 27/3/4 14/4/5 3/1/6
f 33/3/7 6/4/8 19/1/9
f 31/4/10 2/1/11 22/2/12
f 28/3/13 13/4/14 1/1/15
f 40/1/16 18/2/17 7/3/2
f 18/4/17 10/1/18 25/2/19
f 35/3/20 11/4/21 15/1/22
f 17/4/23 9/1/24 26/2/25
f 14/2/5 10/3/18 36/4/26
f 10/4/18 14/1/5 27/2/4
f 9/4/24 13/1/14 28/2/13
f 31/2/10 37/3/27 15/4/22
f 32/1/28 3/2/6 14/3/5
f 35/2/20 39/3/29 19/4/9
f 10/2/18 18/3/17 40/4/16
f 7/4/2 18/1/17 29/2/30
f 5/4/31 17/1/23 30/2/32
f 33/4/7 41/1/33 24/2/3
f 27/4/4 22/1/12 2/2/11
f 32/3/28 42/4/34 22/1/12
f 28/4/13 21/1/35 4/2/36
f 19/3/9 29/4/30 25/1/19
f 20/3/37 30/4/32 26/1/25
f 11/3/21 25/4/19 27/1/4
f 12/3/38 26/4/25 28/1/13
f 6/3/8 24/4/3 29/1/30
f 8/3/39 23/4/40 30/1/32
f 23/4/40 8/1/39 34/2/1
f 17/2/23 5/3/31 33/4/7
f 21/3/35 1/4/15 31/1/10
f 40/2/16 34/3/1 8/4/39
f 13/2/14 9/3/24 35/4/20
f 16/1/41 38/2/42 36/3/26
f 13/3/14 37/4/27 31/1/10
f 32/2/28 38/3/42 16/4/41
f 17/3/23 39/4/29 35/1/20
f 12/1/38 36/2/26 40/3/16
f 23/1/40 41/2/33 33/3/7
f 21/4/35 42/1/34 32/2/28
f 41/4/33 34/1/1 24/3/3
f 22/2/12 27/3/4 3/1/6
f 39/2/29 33/3/7 19/1/9
f 42/3/34 31/4/10 22/2/12
f 21/2/35 28/3/13 1/1/15
f 34/4/1 40/1/16 7/3/2
f 29/3/30 18/4/17 25/2/19
f 37/2/27 35/3/20 15/1/22
f 30/3/32 17/4/23 26/2/25
f 38/1/42 14/2/5 36/4/26
f 25/3/19 10/4/18 27/2/4
f 26/3/25 9/4/24 28/2/13
f 2/1/11 31/2/10 15/4/22
f 38/4/42 32/1/28 14/3/5
f 11/1/21 35/2/20 19/4/9
f 36/1/26 10/2/18 40/4/16
f 24/3/3 7/4/2 29/2/30
f 23/3/40 5/4/31 30/2/32
f 6/3/8 33/4/7 24/2/3
f 15/3/22 27/4/4 2/2/11
f 3/2/6 32/3/28 22/1/12
f 16/3/41 28/4/13 4/2/36
f 11/2/21 19/3/9 25/1/19
f 12/2/38 20/3/37 26/1/25
f 15/2/22 11/3/21 27/1/4
f 16/2/41 12/3/38 28/1/13
f 19/2/9 6/3/8 29/1/30
f 20/2/37 8/3/39 30/1/32
f 41/3/33 23/4/40 34/2/1
f 39/1/29 17/2/23 33/4/7
f 42/2/34 21/3/35 31/1/10
f 20/1/37 40/2/16 8/4/39
f 37/1/27 13/2/14 35/4/20
f 12/4/38 16/1/41 36/3/26
f 1/2/15 13/3/14 31/1/10
f 4/1/36 32/2/28 16/4/41
f 9/2/24 17/3/23 35/1/20
f 20/4/37 12/1/38 40/3/16
f 5/4/31 23/1/40 33/3/7
f 4/3/36 21/4/35 32/2/28
