# Blender v2.72 (sub 0) OBJ File: 'ground.blend'
# www.blender.org
o Plane
v -1.000000 0.000000 1.000000
v 1.000000 0.000000 1.000000
v -1.000000 0.000000 -1.000000
v 1.000000 0.000000 -1.000000
v 0.000000 0.000000 1.000000
v 0.000000 0.000000 -1.000000
v -1.000000 0.000000 0.000000
v 1.000000 0.000000 0.000000
v 0.000000 0.000000 0.000000
vt 0.000000 0.000000
vt 1.000000 0.000000
vt 1.000000 1.000000
vt 0.000000 1.000000
vn 0.000000 1.000000 0.000000
g Plane_Plane_Material.001
s off
f 8/1/1 4/2/1 6/3/1
f 9/1/1 6/2/1 3/3/1
f 2/1/1 8/2/1 9/3/1
f 5/1/1 9/2/1 7/3/1
f 9/4/1 8/1/1 6/3/1
f 7/4/1 9/1/1 3/3/1
f 5/4/1 2/1/1 9/3/1
f 1/4/1 5/1/1 7/3/1
