# Blender v2.69 (sub 0) OBJ File: ''
# www.blender.org
v 1.000000 -1.000000 -1.000000
v 1.000000 -1.000000 1.000000
v -1.000000 -1.000000 1.000000
v -1.000000 -1.000000 -1.000000
v 1.000000 1.000000 -0.999999
v 0.999999 1.000000 1.000001
v -1.000000 1.000000 1.000000
v -1.000000 1.000000 -1.000000
vt 0.000000 0.000000
vt 1.000000 0.000000
vt 0.000000 1.000000
vt 1.000000 1.000000
vn 0.577349 -0.577349 -0.577349
vn 0.577349 -0.577349 0.577349
vn -0.577349 -0.577349 -0.577349
vn 0.577349 0.577349 -0.577349
vn -0.577349 0.577349 -0.577349
vn 0.577349 0.577349 0.577349
vn -0.577349 -0.577349 0.577349
vn -0.577349 0.577349 0.577349
s 1
f 1/1/1 2/2/2 4/3/3
f 5/1/4 8/2/5 6/3/6
f 1/1/1 5/2/4 2/3/2
f 2/1/2 6/2/6 3/3/7
f 3/1/7 7/2/8 4/3/3
f 5/1/4 1/2/1 8/3/5
f 2/2/2 3/4/7 4/3/3
f 8/2/5 7/4/8 6/3/6
f 5/2/4 6/4/6 2/3/2
f 6/2/6 7/4/8 3/3/7
f 7/2/8 8/4/5 4/3/3
f 1/2/1 4/4/3 8/3/5
